<svg width="142px" height="141px" viewBox="36 33 142 141" version="1.1" xmlns="http://www.w3.org/2000/svg" xmlns:xlink="http://www.w3.org/1999/xlink">
    <!-- Generator: Sketch 41.2 (35397) - http://www.bohemiancoding.com/sketch -->
    <desc>Created with Sketch.</desc>
    <defs>
        <linearGradient x1="100%" y1="0%" x2="0%" y2="100.999999%" id="linearGradient-1">
            <stop stop-color="#1B4580" offset="0%"></stop>
            <stop stop-color="#1688C9" offset="100%"></stop>
        </linearGradient>
        <linearGradient x1="0%" y1="0%" x2="41.7780558%" y2="100%" id="linearGradient-2">
            <stop stop-color="#00A89C" offset="0%"></stop>
            <stop stop-color="#008040" offset="100%"></stop>
        </linearGradient>
        <linearGradient x1="50.0119579%" y1="99.964132%" x2="50.0119579%" y2="0.0119579082%" id="linearGradient-3">
            <stop stop-color="#1688C9" offset="0.0239158163%"></stop>
            <stop stop-color="#00A89C" offset="100%"></stop>
        </linearGradient>
        <linearGradient x1="100%" y1="97.5438532%" x2="0%" y2="50%" id="linearGradient-4">
            <stop stop-color="#00A89C" offset="0%"></stop>
            <stop stop-color="#008040" offset="100%"></stop>
        </linearGradient>
        <linearGradient x1="0%" y1="100%" x2="100%" y2="0%" id="linearGradient-5">
            <stop stop-color="#1B4580" offset="0%"></stop>
            <stop stop-color="#1688C9" offset="100%"></stop>
        </linearGradient>
    </defs>
    <g id="Icono" stroke="none" stroke-width="1" fill="none" fill-rule="evenodd" transform="translate(37.000000, 34.000000)">
        <polygon id="Fill-1" fill="#FFFFFF" points="37.9998 -0.0004 -0.0002 38.0006 -0.0002 102.0006 37.9998 139.9996 101.9998 139.9996 140.0008 102.0006 140.0008 38.0006 101.9998 -0.0004"></polygon>
        <polygon id="Fill-5" fill="url(#linearGradient-1)" points="130 98 98 130 75 130 75 97 130 42"></polygon>
        <polygon id="Fill-4" fill="url(#linearGradient-2)" points="123 35 98 10 75 10 75 43 95 63"></polygon>
        <polygon id="Fill-3" fill="url(#linearGradient-3)" points="70 52 52 70.03 70 88 88 70.03"></polygon>
        <polygon id="Fill-1" fill="url(#linearGradient-4)" points="17 105 42 130 65 130 65 97 45 77"></polygon>
        <polygon id="Fill-2" fill="url(#linearGradient-5)" points="10 42 42 10 65 10 65 43 10 98"></polygon>
    </g>
</svg>