<svg width="140px" height="141px" viewBox="37 33 140 141" version="1.1" xmlns="http://www.w3.org/2000/svg" xmlns:xlink="http://www.w3.org/1999/xlink">
    <!-- Generator: Sketch 41.2 (35397) - http://www.bohemiancoding.com/sketch -->
    <desc>Created with Sketch.</desc>
    <defs>
        <linearGradient x1="50.0119579%" y1="99.964132%" x2="50.0119579%" y2="0.0119579082%" id="linearGradient-1">
            <stop stop-color="#1688C9" offset="0.0239158163%"></stop>
            <stop stop-color="#00A89C" offset="100%"></stop>
        </linearGradient>
        <linearGradient x1="0%" y1="100.999999%" x2="100%" y2="0%" id="linearGradient-2">
            <stop stop-color="#1B4580" offset="0%"></stop>
            <stop stop-color="#1688C9" offset="99.5640189%"></stop>
            <stop stop-color="#1688C9" offset="99.5640189%"></stop>
            <stop stop-color="#1688C9" offset="100%"></stop>
        </linearGradient>
        <linearGradient x1="0%" y1="0%" x2="100%" y2="100%" id="linearGradient-3">
            <stop stop-color="#00A89C" offset="0%"></stop>
            <stop stop-color="#008040" offset="100%"></stop>
        </linearGradient>
        <linearGradient x1="0%" y1="100%" x2="100%" y2="0%" id="linearGradient-4">
            <stop stop-color="#00A89C" offset="0%"></stop>
            <stop stop-color="#008040" offset="100%"></stop>
        </linearGradient>
        <linearGradient x1="0%" y1="0%" x2="100%" y2="100%" id="linearGradient-5">
            <stop stop-color="#1B4580" offset="0%"></stop>
            <stop stop-color="#1688C9" offset="100%"></stop>
        </linearGradient>
    </defs>
    <g id="Icono" stroke="none" stroke-width="1" fill="none" fill-rule="evenodd" transform="translate(37.000000, 34.000000)">
        <polygon id="Fill-1" fill="#FFFFFF" points="0 -0.0004 0 103.9996 36 139.9996 104 139.9996 140 103.9996 140 -0.0004"></polygon>
        <polygon id="Fill-2" fill="url(#linearGradient-1)" points="54 54 54 79.6 62 86 78 86 86 78 86 54"></polygon>
        <polygon id="Fill-5" fill="url(#linearGradient-2)" points="75 130 100 130 130 100 130 75 100 75 100 85 85 100 75 100"></polygon>
        <polygon id="Fill-6" fill="url(#linearGradient-3)" points="65 130 40 130 10 100 10 75 40 75 40 85 55 100 65 100"></polygon>
        <polygon id="Fill-4" fill="url(#linearGradient-4)" points="75 10 130 10 130 65 100 65 100 40 75 40"></polygon>
        <polygon id="Fill-3" fill="url(#linearGradient-5)" points="65 10 10 10 10 65 40 65 40 40 65 40"></polygon>
    </g>
</svg>