<svg width="144px" height="145px" viewBox="35 32 144 145" version="1.1" xmlns="http://www.w3.org/2000/svg" xmlns:xlink="http://www.w3.org/1999/xlink">
    <!-- Generator: Sketch 41.2 (35397) - http://www.bohemiancoding.com/sketch -->
    <desc>Created with Sketch.</desc>
    <defs>
        <linearGradient x1="50.0119579%" y1="99.964132%" x2="50.0119579%" y2="0.0119579082%" id="linearGradient-1">
            <stop stop-color="#1688C9" offset="0.0239158163%"></stop>
            <stop stop-color="#00A89C" offset="100%"></stop>
        </linearGradient>
        <linearGradient x1="0%" y1="100%" x2="100%" y2="100%" id="linearGradient-2">
            <stop stop-color="#1B4580" offset="0%"></stop>
            <stop stop-color="#1688C9" offset="100%"></stop>
        </linearGradient>
        <linearGradient x1="100%" y1="0%" x2="100%" y2="100%" id="linearGradient-3">
            <stop stop-color="#00A89C" offset="0%"></stop>
            <stop stop-color="#008040" offset="100%"></stop>
        </linearGradient>
        <linearGradient x1="1.11022302e-14%" y1="100%" x2="0%" y2="0%" id="linearGradient-4">
            <stop stop-color="#00A89C" offset="0%"></stop>
            <stop stop-color="#008040" offset="100%"></stop>
        </linearGradient>
        <linearGradient x1="100%" y1="0%" x2="0%" y2="0%" id="linearGradient-5">
            <stop stop-color="#1B4580" offset="0%"></stop>
            <stop stop-color="#1688C9" offset="100%"></stop>
        </linearGradient>
    </defs>
    <g id="Icono" stroke="none" stroke-width="1" fill="none" fill-rule="evenodd" transform="translate(35.000000, 32.000000)">
        <circle id="Oval" fill="#FFFFFF" cx="72" cy="72.1766235" r="72"></circle>
        <path d="M88,72 C88,63.163 80.837,56 72,56 C63.163,56 56,63.163 56,72 C56,80.837 63.163,88 72,88 C80.837,88 88,80.837 88,72" id="Fill-1" fill="url(#linearGradient-1)"></path>
        <path d="M110.9619,118.0336 L89.7489,96.8206 C79.9849,106.5836 64.1569,106.5836 54.3939,96.8206 L33.1809,118.0336 C54.6589,139.5126 89.4829,139.5126 110.9619,118.0336" id="Fill-5" fill="url(#linearGradient-2)"></path>
        <path d="M118.0332,110.9623 L96.8202,89.7493 C106.5832,79.9853 106.5832,64.1573 96.8202,54.3943 L118.0332,33.1813 C139.5122,54.6593 139.5122,89.4833 118.0332,110.9623" id="Fill-7" fill="url(#linearGradient-3)"></path>
        <path d="M26.1094,33.1811 L47.3224,54.3941 C37.5594,64.1581 37.5594,79.9861 47.3224,89.7491 L26.1094,110.9621 C4.6304,89.4841 4.6304,54.6601 26.1094,33.1811" id="Fill-3" fill="url(#linearGradient-4)"></path>
        <path d="M33.1807,26.1098 L54.3937,47.3228 C64.1577,37.5598 79.9857,37.5598 89.7487,47.3228 L110.9617,26.1098 C89.4837,4.6308 54.6597,4.6308 33.1807,26.1098" id="Fill-1" fill="url(#linearGradient-5)"></path>
    </g>
</svg>